/* XPM */
static char *b9ed6948054740089d618679943becccub3PFULF2LxHUzJC[] = {
/* columns rows colors chars-per-pixel */
"64 64 191 2 ",
"   c #3B220E",
".  c #3F2410",
"X  c #342219",
"o  c #2A2927",
"O  c #2F2E2C",
"+  c #2D3331",
"@  c #313734",
"#  c #363B3A",
"$  c #393D3B",
"%  c #412511",
"&  c #452813",
"*  c #4D2D13",
"=  c #45291C",
"-  c #4A2B1B",
";  c #532E19",
":  c #563315",
">  c #5A3517",
",  c #53321B",
"<  c #5C311C",
"1  c #5E3819",
"2  c #5E3817",
"3  c #64341F",
"4  c #633B1C",
"5  c #6C3D1D",
"6  c #452C22",
"7  c #573122",
"8  c #403F3D",
"9  c #6B3723",
"0  c #6C3B23",
"q  c #673E2A",
"w  c #733C25",
"e  c #783F26",
"r  c #773D28",
"t  c #793D28",
"y  c #3C413F",
"u  c #6B411D",
"i  c #71451E",
"p  c #7B4B1E",
"a  c #6E4222",
"s  c #744326",
"d  c #7B4525",
"f  c #7C4B23",
"g  c #764329",
"h  c #7D412A",
"j  c #7E4A2B",
"k  c #774824",
"l  c #7F4630",
"z  c #414542",
"x  c #454945",
"c  c #4A4947",
"v  c #464A48",
"b  c #4E534E",
"n  c #4F5350",
"m  c #525752",
"M  c #545954",
"N  c #5A5D56",
"B  c #595F59",
"V  c #5B605B",
"C  c #62655F",
"Z  c #636761",
"A  c #666962",
"S  c #696D65",
"D  c #6E736B",
"F  c #73766C",
"G  c #75796E",
"H  c #787B6F",
"J  c #747474",
"K  c #767C72",
"L  c #7C7E73",
"P  c #844F23",
"I  c #84442C",
"U  c #89472D",
"Y  c #834C2C",
"T  c #8D4B2E",
"R  c #804627",
"E  c #835124",
"W  c #855128",
"Q  c #93532D",
"!  c #935B2A",
"~  c #98552F",
"^  c #8D4731",
"/  c #844C30",
"(  c #8E4B31",
")  c #944D31",
"_  c #954839",
"`  c #9D4D3B",
"'  c #955331",
"]  c #9C5433",
"[  c #9D5B33",
"{  c #9A5938",
"}  c #A15635",
"|  c #A35B36",
" . c #A85E37",
".. c #A2503E",
"X. c #A45C39",
"o. c #AB5E3A",
"O. c #A46334",
"+. c #A96336",
"@. c #A56139",
"#. c #AC633C",
"$. c #AD683B",
"%. c #A76835",
"&. c #B2653D",
"*. c #B46B3D",
"=. c #BA6C3E",
"-. c #B4703C",
";. c #BC713F",
":. c #AE5842",
">. c #B55D45",
",. c #B36542",
"<. c #B56B41",
"1. c #BB6D41",
"2. c #BE6C49",
"3. c #B86647",
"4. c #BC7242",
"5. c #C06E43",
"6. c #C46A4A",
"7. c #C2664B",
"8. c #C37444",
"9. c #C97647",
"0. c #C57A44",
"q. c #CA7D46",
"w. c #C7754C",
"e. c #CB744E",
"r. c #C77A48",
"t. c #CD7E48",
"y. c #D07A4D",
"u. c #CF7B50",
"i. c #D57C51",
"p. c #7E8177",
"a. c #7E847A",
"s. c #7D8279",
"d. c #808276",
"f. c #818477",
"g. c #80837A",
"h. c #81847A",
"j. c #828479",
"k. c #84867D",
"l. c #81847A",
"z. c #85887C",
"x. c #85887F",
"c. c #82897F",
"v. c #CC8147",
"b. c #CE8149",
"n. c #D28C46",
"m. c #D2844B",
"M. c #D6894D",
"N. c #D98C4E",
"B. c #D38747",
"V. c #D59348",
"C. c #DC924D",
"Z. c #DC9A4C",
"A. c #DB8453",
"S. c #DC8A52",
"D. c #DF9051",
"F. c #E19B4E",
"G. c #E28D56",
"H. c #E38E58",
"J. c #E39156",
"K. c #E49C51",
"L. c #E59058",
"P. c #E99958",
"I. c #E3A14E",
"U. c #E6A154",
"Y. c #E9A454",
"T. c #EBAA55",
"R. c #EFA75B",
"E. c #EFA95B",
"W. c #E6A158",
"Q. c #F0A95D",
"!. c #878A81",
"~. c #858981",
"^. c #878A81",
"/. c #888E85",
"(. c #888E84",
"). c #8D918A",
"_. c #8D938A",
"`. c #8D918A",
"'. c #8D9186",
"]. c #91968C",
"[. c #93998F",
"{. c #92988F",
"}. c #979E94",
"|. c #99A096",
" X c #9BA298",
".X c #9BA298",
"XX c #A0A0A0",
"oX c #A9AEA5",
"OX c gray81",
"+X c #C3C3C3",
"@X c #EAEAEA",
/* pixels */
" X!.!.G D y _..X.X.X.X^.^.F F y _..X.X.X.Xx.c.J J y B B V V V V V V B B B B y _..X.X.X.Xx.x.s.D # y _..X.X.X.X^.^.H F y '..X.X.X",
"F j.j.L V y _.V Z S F j.j.p.V y _.C C S F j.c.a.B y |..X].|.].].[.|.}.|.|.c.y _.C C S F j.z.a.V y y _.Z C S F f.f.p.V y '.C C S ",
"j.].!.d.V y _.V Z V c._.x.p.V y _.C C C j._.!./.B # s.s.p.a.G p.a.s.D D D S y _.C C C f.].!.d.Z y y _.V C C f._.x.p.V y _.C C C ",
"d.x.x.L V v .XD S S p.^.x.L V x |.F S S d.!.!.{ B z D s.p.p.p.p.c.F Z Z A D y  XF S S p.x.x.{ Z v y .XJ S S p.z.^.p.V y .XF S S ",
"L { s.s.M y |.s.F F H p.p.p.V y  XK F F L L p.L B y K s.K K G p.j.F Z A S J y .XL F F p.p.p.p.V y y .Xs.D D p.p.s.c.B z .XL F F ",
"c._.K s.V x /.s.f.p.j.j.H p.V x ).L j.p.j.a.K p.B v K s.s.D p.s.c.K S S S D y _.L j.H j.f.H H V v y _.s.a.s.a.a.J ,.B y _.L j.H ",
"a.c.c.Z V y _.K f.L p.x.f.S V y ).K j.L L x.a.S V y s.K D s.s.S a.D F D J J y _.K j.H p.x.f.S V y y _.K a.s.p.c.c.Z B y _.K j.L ",
"J s.s.D x y D s.j.j.F p.L D x $ D L j.j.G d.K D v y K D s.s.G G j.S p.F D S y D L j.j.F p.p.D v y y D K a.a.D s.s.D v $ F L j.j.",
"V V y $ $ y x V V V B V y $ # y v V V V V V y y # y V D K J S Z L j.K L s.V y v V V V V V y y # y y v B B B V B y y # y v B V V ",
"z y y y x y y x V V _.L L a.s.Z Z y /.s.K G D D S K y p.(.c.K c.l.l.L K s.x a.s.F D D D a.b A z._.c.c././.x v y y y y v y y v V ",
"D K K G x.L F p.V y H G K D a.Z a.b a.G K s.c.s.s.F y s.s.s.s.a.a.L J F F v /.K G s.D D F y z.].c._.k.,.a.a.y F s.D D c.s.s.a.B ",
"F K a.L (.L F p.V y F K F F F F G A z c.c.K K K G S x S S D s.s.p.L F F S b _.F D K F D G m '.z.c.c.k.j.L K y D s.s.K /.K D a.B ",
").J L L x.p.K L V y F G s.s.K s.a.s.m s.K D K D D D y b Z V V V B B V V b x ^.S s.G K F N }.f.(.c./.a.c.~.j.y _.J L L ~.s.s.s.B ",
").S K K a.p.L p.V y s.p.K D K F F L a.v S A = g a Q { { { @.{ a 3.#.X.X.@.:.{ l g . N S M p.z.p.s.s.K K /.D y _.S K K a.K K K V ",
".XD L L p.K p.p.V y C (.D p.D D a.K K x 6 - j { ' { X.{ { ,.@.a 2.,.,.#.,.<.@.,.,.j l o s.a.j.p.s.~.a.c.D y y  XF L L s.L L p.V ",
".XL L L p.p.G S V y y V p.J L K l.F K % , 3.$.@.[ [ #.#.$.<.<.g e.1.<.<.$.<.@.,.,.<.a / V p.F p.~.a.c.V y F y  XL L L s.K H D V ",
"`.K J A K G S S m y F x K F G S K G x g 0 $.,.@.{ @.<.,.<.<.4.g A.4.u.2.4.2.<.<.<.<.a 2.6 S D D K ~.V $ _.F y _.G G S L G S S m ",
").K F D S S C V m y G ].y b K V x - s @.a <.1.4.<.<.v.v.v.v.v.j S.N.m.m.m.M.4.u.b.4.a u.-., x M v z ].j.H j.y _.H y $ # $ y y $ ",
"$ y y y y v V V # $ D L Z $ y z - j { #.s 4.8.8.<.v.v.b.v.b.m.j H.M.M.M.m.M.v.m.A.4.f M.<.j 7 y y ].j.a.(.(.y y y y _..X X|. X~.",
" X X X~.^.F D y L F H x.l.J y - d @.@.*.k u.b.r.v.v.b.M.v.m.b.! H.C.m.M.m.M.b.M.S.m.j S.4.<./ 6 B K L j.a.j.a.z.F z _.C C S G j.",
"C S F f.l.p.V y H L c.K s.V = g { $.,.4.k m.b.m.v.v.M.M.M.M.m.! H.Z.S.M.M.M.m.N.D.M./ S.2.4.<.l - B p.G /.a.a.F s.y _.V C C j._.",
"C C j.].^.p.V $ D F F _.V & @.{ $.<.<.v.j C.M.M.b.m.M.M.M.C.m.! L.D.S.M.b.V.M.b.M.S.! P.m.2.4.<.%.g V F j.F S V # y .XD S S L ~.",
"S S d.x.x.H V x n F D L O i @.@.<.4.8.b.! C.N.M.b.M.M.Z.M.S.C.! D.M.M.M.b.M.M.m.N.N.! W.m.v.4.<.*.$.= V D V b V a.y |.s.D s.,.c.",
"F F H d.d.p.V y _.N D V 0 ! #.$.4.4.r.b.k C.M.M.b.A.M.M.S.M.m.! D.S.m.M.b.M.m.b.m.N.' V.M.v.v.4.<.*.j n b V _.f.D y /.s.a.J a.c.",
"j.L f.j.s.p.V z F D D q ! [ $.4.m.b.b.b.! T.N.m.N.D.M.M.M.M.m.! D.m.M.m.v.m.m.m.M.M.! V.m.v.v.4.4.-.<.7 S D F D D y /.s.s.s.p.a.",
"j.L { !.a.A V y D D V q %.-.4.0.m.b.b.b.! T.N.N.N.D.M.m.m.M.m.! C.m.b.M.v.m.b.m.M.M.! V.v.v.v.4.4.4.<.{ V D D L D y D s.s.a.F p.",
"c.c.a.c.s.S v y G V . %.*.-.8.0.b.m.m.M.! W.C.b.N.S.m.b.m.b.v.! C.M.m.m.v.m.M.m.M.C.! Z.m.v.v.v.4.4.<.8.: V G p.p.y x V V V V V ",
"B V V B y y # y y v 4 *.4.4.q.m.b.M.M.M.! T.S.A.V.S.M.b.m.M.v.! D.A.S.m.b.M.N.N.Z.C.! Z.M.M.m.v.v.v.4.b.: x y y y y x y y x V V ",
"y D A D s.D D K D y p 8.m.m.b.m.M.S.S.M.! Q.L.M.m.M.M.M.b.M.M.O.S.M.C.m.D.M.C.A.D.S.! W.M.M.M.M.v.n.v.<.a y F K K F x.L G p.V y ",
"y c.J K s.A A D K y p t.t.t.t.t.M.N.S.M.! Q.D.M.m.N.M.m.b.M.n.O.D.M.C.M.Z.M.Z.S.Z.C.! W.M.M.b.M.m.b.b.4.! y D K p.p.~.p.D p.V y ",
"y .XD K s.J S A F y p b.b.m.m.b.N.M.S.M.! T.D.m.m.N.M.m.b.M.M.O.S.N.C.S.C.M.M.A.S.N.! T.M.M.v.M.M.b.N.4.! y `.F p.L z.p.p.p.V y ",
"y .XD K K c.a.K G y p m.b.b.m.b.Z.M.m.M.! Q.L.M.m.m.m.M.M.m.M.! N.S.N.C.C.M.M.M.M.M.! Q.M.M.v.M.b.M.M.M.! y `.S K K f.H p.p.V y ",
"y ~.D s.s.J s.c.S z p m.v.b.B.b.J.m.m.m.! T.H.b.b.m.v.m.t.m.N.! C.M.N.S.D.N.M.M.M.m.~ T.B.m.v.m.b.m.M.K.! y .XF L L s.L L L V z ",
"y s.D K K s.K s.F $ p b.q.b.y.b.N.m.m.m.! T.H.m.m.m.b.m.b.m.m.! C.m.M.Z.D.S.m.m.m.m.! T.m.m.b.m.b.m.m.K.! y .XL L L L L K D B y ",
"y F D Z A D A D F $ p b.q.q.b.t.S.B.m.m.! T.G.m.b.b.v.m.b.b.m.! C.m.m.N.S.A.m.b.M.m.! T.m.m.q.m.b.b.m.T.! y ).G J S K F S S M y ",
"y D A Z V Z A D S y p b.8.q.b.t.A.m.m.m.! Q.G.m.b.b.v.m.b.b.N.! N.m.m.C.M.H.m.m.M.m.! Q.t.b.v.m.b.b.M.T.! 8 ).K F D S S Z B M y ",
"y v v v y y y y y z p 8.m.m.m.m.N.m.m.t.! T.N.m.v.b.b.m.m.q.B.R G.y.m.m.b.C.b.m.m.y.! Y.v.q.b.b.m.q.m.Y.P y $ y y y y y y y # y ",
"~.J D y y D .X.XG y p 8.m.B.t.y.M.b.m.b.f Y.N.B.q.v.t.b.t.t.m.f G.t.m.m.t.N.b.b.m.m.f Y.q.q.t.b.b.q.m.T.f y F _.}.oXF 8 y )..X}.",
"p.p.V y y c._._.L y p t.t.y.y.t.N.q.y.t.f W.S.b.q.t.t.v.m.q.b.f A.m.t.t.b.N.t.t.m.q.P Y.0.0.t.b.b.q.b.U.f y _.d.L J S y $ ).Z Z ",
"x.p.V y y c.{._.{ y p m.b.m.B.b.B.m.b.m.f K.N.b.v.b.v.m.t.m.B.f A.t.t.b.b.m.b.t.B.y.p I.0.0.q.t.t.q.t.Y.f y .Xj.D G A y y ).Z Z ",
"x.p.V x y S z.z.p.y p v.v.v.m.t.b.m.m.B.! Y.M.b.t.t.t.t.B.t.m.~ A.t.q.y.t.B.t.t.t.b.! Y.;.0.0.0.q.q.q.F.! y |.D p.F F y y .XG S ",
"p.p.V y y S p.p.p.y p v.q.B.B.b.m.B.y.B.! Y.A.m.q.B.b.B.y.q.m.! i.t.0.m.q.t.t.q.t.t.! Y.0.Q | [ [ [ ;.F.! y ).D F S D y y .XK G ",
"H f.V x y S H f.F y p m.q.t.B.t.b.b.b.m.! Y.i.m.q.t.m.t.B.t.m.! y.t.t.b.t.q.t.t.t.N.E Y.0.+XOX@X@X@X| Z.! y ~.D S Z S y $ ).L j.",
"f.C V y z S C C C y p b.t.t.t.q.b.v.t.t.i Y.m.t.m.q.t.t.m.t.t.i G.t.t.t.B.m.t.m.t.C.i Y.;.8 o XX8 c d Z.i y D D D V S y z ).K j.",
"p.D x y y V V V v y p m.t.b.t.v.b.b.v.b.p T.B.m.m.t.q.B.N.m.B.P G.y.b.b.B.m.t.m.B.m.f T.*.OXJ XXOX@Xc 0.4 y V V V V V y $ F K j.",
"V v x y # @ # y @ y p m.q.q.b.q.b.t.q.m.f Y.N.m.N.t.t.B.A.m.t.! G.b.v.b.B.b.m.B.M.M.p T.2 XXO J O XX@X| u y y # y $ y $ z v B B ",
"y a.'..XoXoXoX.X.Xy p b.y.b.q.t.q.t.t.m.P T.G.m.m.t.m.m.B.m.B.! G.m.t.b.m.m.b.m.m.A.5 T.% O o O O O OXf 0 y ). X X X X~.!.H J $ ",
"y c.H H H H p.p.S y p q.q.v.b.0.9.q.0.q.u J.G.t.m.t.t.t.m.t.q.3 N.B.0.q.b.b.b.t.m.m.R T.% c J J c O .X2 4 $ ).Z Z S G j.j.L B y ",
"# ).S p.p.p.H p.S y p 0.q.0.B.t.q.q.9.q.u F.A.y.q.t.q.B.A.t.q.4 S.v.q.q.B.t.t.q.b.t.f K.% XXc O O XXJ 1 4 $ `.C C C c._.c.s.B y ",
"y ).D K f.f.H S S y p 9.q.0.0.t.q.9.8.9.4 F.G.B.t.t.y.t.B.n.t.4 N.q.8.0.t.t.t.9.q.t.4 Y.p J OX@XOXJ O % 4 y .XG S S a.c.c.s.B v ",
"y .XD H f.f.F D F y p q.t.y.t.8.9.5.=.8.> F.A.q.q.q.q.q.q.B.q.5 B.q.8.q.q.t.q.q.q.t.2 K.P O o o O O 1 ) 1 y |.L F F { a.K s.B y ",
"y x.H K p.p.p.D C y E 8.9.9.5.=.5.=.=.=.* C.i.9.9.9.q.9.9.q.8.5 A.9.;.8.8.q.;.9.8.8.: F. .8.0.0.0.9.q.K.> y _.L j.L _.c.K s.B v ",
"y ).G K p.p.F D S $ P =.8.8.5.=.=.&.&.&.2 F.y.5.=.5.q.;.9.9.8.> i.;.=.;.=.q.=.;.5.5.> C.O.;.0.8.+.8.0.F.: y _.K a.L L ~.a.S V y ",
"y p.G p.p.F A A B $ P 7.8.8.5.=.&.=.&.o.* C.y.6.5.=.9.=.9.5.;.> q.=.+.*.=.5.*.=.=.=.> n.[ =.8.=.'  .| C.: y D L j.j.K a.L D x y ",
"y x v v C V V V B z p 7.5.5.&.o.=.=.o. .> B.y.=.=.=.9.=.=.9.=.> 8.=.+.+.+.=.&.=.=.&.> B.~ O. .] ] O.[ N.: y x B B B V V y y # y ",
"a.G F y y F .Xx.H $ w } } X.} X.} } } } : B.6.>.o.o.&.&.o.;.o.2 ;.+.| O. .o. .o.o.o.: q.I [ ] Y R T ' B.* y F _..X.XD y y _.|.|.",
"a.L V y y D D L { v 9 ] } } ] } } } } ) * B.7.o.} o.&.o. .=. .> =. .} ~  .o.}  .o.o.* 8.R } T Y T T R q.* z !.H D F D y y ).Z Z ",
"x.L V y y D J L a.v 9 { ] ] ] ] } ) ] ) * n.7.} } o.} o.} =.} > =.} } ~ } } } }  .} * 9.R Y h e d T R q.* $ .XG F D S y y ].C C ",
"^.p.V x y G K D s.y 6 ' ( ) ^ ) ) T ) U * &.&.` ) ) ) } }  .} >  .) ) U ) ) ~ ) ) ) &  .e e e R d e e +.5 y .XF K K D y z .XF S ",
"H p.V y y L F D s.# 7 ( I I I I T I I e * +.o.^ ) ) T } ) ] ) 3 o.U T I T U T I U ^ & } 5 e R h e e e  .& z k.D F D K y $ }.L F ",
"H d.V c y L D D S y < I t h t h I t h w % } ..U I I ^ ) ^ I ^ < ..I I t w e I I e I % U 5 w t t e w 5 ' % y G D K K a.y 8 `.L j.",
"f.S V y y J S S Z 8 < t t w w w t t w w % ) ` t I t U ^ h I I < ` t t w w t t I w U % h 9 9 w w w w 9 ) 1 $ F D K a.L y y `.K l.",
"L D x y y V V B c v < t r w e 9 t t 9 R   ) _ t t t t U t t h < _ w t 9 w w t t 9 e   t 3 9 3 9 5 3 3 t < @ B B B C B y z D L j.",
"V x x y y + # @ @ @ < < < < < < < < < ; % 3 9 < < < < 3 < < 3 * 9 < < < < < < < ; < % < ; < ; < ; < ; < * @ @ @ # # x y y c B B "
};
