/* XPM */
static char *ef22def3caa942f9ce7498de57c563cbPCRJ5EFmvJoflGXB[] = {
/* columns rows colors chars-per-pixel */
"64 64 110 2 ",
"   c #2D3331",
".  c #313734",
"X  c #363B3A",
"o  c #393D3B",
"O  c #422617",
"+  c #432914",
"@  c #43291B",
"#  c #4A2B1A",
"$  c #502E1C",
"%  c #422E22",
"&  c #4F3625",
"*  c #673E2A",
"=  c #3C413F",
"-  c #414542",
";  c #454945",
":  c #464A48",
">  c #4E534E",
",  c #4F5350",
"<  c #525752",
"1  c #545954",
"2  c #5A5D56",
"3  c #595F59",
"4  c #5B605B",
"5  c #62655F",
"6  c #636761",
"7  c #666962",
"8  c #696D65",
"9  c #6E736B",
"0  c #73766C",
"q  c #75796E",
"w  c #787B6F",
"e  c #747770",
"r  c #767C72",
"t  c #7C7E73",
"y  c #7E8177",
"u  c #7D8279",
"i  c #808276",
"p  c #83867B",
"a  c #81847A",
"s  c #82857C",
"d  c #82857D",
"f  c #82867C",
"g  c #80867F",
"h  c #84867C",
"j  c #84877E",
"k  c #81847A",
"l  c #82897F",
"z  c #85887C",
"x  c #84887E",
"c  c #85887F",
"v  c #838981",
"b  c #858880",
"n  c #868980",
"m  c #858A80",
"M  c #848A81",
"N  c #868A80",
"B  c #878A81",
"V  c #858982",
"C  c #868B83",
"Z  c #878D83",
"A  c #868D84",
"S  c #878A81",
"D  c #888C82",
"F  c #888E85",
"G  c #898F86",
"H  c #8D9186",
"J  c #8C9289",
"K  c #8D918A",
"L  c #8D938A",
"P  c #8F958C",
"I  c #8D918A",
"U  c #90968B",
"Y  c #92978E",
"T  c #92988F",
"R  c #93998F",
"E  c #969C93",
"W  c #989F95",
"Q  c #99A096",
"!  c #9AA197",
"~  c #9BA298",
"^  c #9BA298",
"/  c #A9AEA5",
"(  c #C0B1AC",
")  c #D3CAC6",
"_  c #D9CFC7",
"`  c #D6D7D6",
"'  c #D9D5D4",
"]  c #DCD7D4",
"[  c #DDD7D4",
"{  c #DDD7D5",
"}  c #DED8D4",
"|  c #DFD8D5",
" . c #DED9D4",
".. c #E4DBD6",
"X. c #E4DCD5",
"o. c #E5DCD6",
"O. c #E5DCD7",
"+. c #E7DCD7",
"@. c #E4DAD6",
"#. c #EDE0DA",
"$. c #EEE1DA",
"%. c #EFE1DA",
"&. c #E0E1E0",
"*. c #F0F0EF",
"=. c #F6F3F1",
"-. c #F7F4F2",
";. c #FAF5F3",
":. c #F8F5F2",
">. c white",
",. c white",
/* pixels */
"~ S S q 0 = K W W ^ W D S q 0 o U Q ! ! ^ z c w 9 = 4 4 3 3 3 3 3 3 3 3 3 3 = K ^ ^ ^ ^ z c 0 9 = = H ^ ! ^ ^ c D q 0 = K ^ ^ ^ ",
"0 a i y 3 - K 6 6 8 0 s s t 3 = U 5 5 8 0 p i i 4 = Q Q T ! T T W ! E ~ ~ v = K 5 5 8 0 z z i 4 = = H 5 5 8 0 a i i 4 = K 5 5 8 ",
"k U S i 4 o K 6 6 6 k K S i 3 = c 8 5 5 p L c i 4 = q y u c w y d t 9 9 8 8 = K 5 5 5 i L c i 4 = = K 5 5 5 a H D w 4 = H 5 5 5 ",
"i S S w 4 : W q 8 8 t S S i 3 : ! 0 8 7 y z c i 4 ; 0 y y i w t l 0 6 6 8 9 = ~ w 8 5 y z c i 4 : = ^ 0 8 8 y z c i 4 - ^ 0 8 8 ",
"t t t t 2 o ^ r 0 0 t t t t 4 & ^ y 0 0 y y y y 4 = r y r r w y k e 6 6 9 e = ~ y 9 0 y y y y 4 = = ! t 0 0 y y t i 4 = ^ t 0 0 ",
"k k r t 5 : U r p t a d r t 4 : l y u y y y y u 4 ; r y r q y y h r 8 8 7 9 = K y p y y i w y 4 : = H y y y a i r t 4 = K t i t ",
"t S k 8 2 = K r a t r C g 8 4 = H y u y y u u 7 4 = y 0 q y y 8 k 0 r 9 e e = K q y w y z i 8 4 = = K q i y y c a 8 4 = K r a t ",
"0 i t 0 : = 0 r k k e g r 9 : = 9 y u u 0 y u 8 : = 9 9 y u q q k 8 r 0 9 7 = e y p i 0 y y 9 : = = 9 y a a 0 y t 9 ; = 0 t a a ",
"4 3 = = X o : 3 2 4 4 4 = = X o : 4 4 4 4 4 = = X = 5 9 q r 8 6 t k e t y 4 = : 4 4 4 4 4 = = X = = : 2 4 4 4 4 = o X = : 3 3 4 ",
"- = = = : - = : 4 4 K t t u u 7 6 - G u y 9 9 8 8 r o t S k r S d k t r u ; l y 9 9 9 9 y > 7 p U z s s G - : = o - = : = - : 4 ",
"e e r e S t r t 4 = r q r 9 u 6 u > u r e y g u r e = k t k u y t t e 0 9 : A e r r 9 0 9 - p U h G d i t t = 9 q r q S t 0 i 2 ",
"0 r u t C t 0 t 4 = 0 r 0 0 0 0 0 8 ; u v y e y 0 9 ; 8 8 0 k r u t 0 0 8 , L 0 0 r 0 9 w < L p h h v b t t = 0 t y t S t 0 i 4 ",
"K e t t C t t t 4 = q t u u r u u u 1 u r 9 r 9 9 9 X > 4 ` ,.&.3 4 4 4 > ; v 8 r r e e 2 T i H c D z z b d = K e t t V t t t 4 ",
"K 8 r r d t t t 4 = r r r 9 r 0 9 y u : 8 6 ] @.@.,.,.,.,.,.%.=.,.,.,.,.,.,.,.,.,.] 1 8 2 y p y p t r t C 9 = K 8 t e d t t t 4 ",
"W e r t u t t t 4 = 7 Z q r 9 9 y r r ;  .,.,.,.,.,.,.,.,.,.,.,.,.,.,.,.,.,.,.,.%.,.,.` u u p y u S k c 9 = - ^ e r r u t t u 4 ",
"^ t t t t t r 9 4 = = 4 y e r r a 0 r O ,.,.,.,.,.,.,.,.,.,.,.,.,.,.,.,.,.,.,.,.,.,.,.,.4 y 0 y S a h 2 = e = W t t u t t r 0 4 ",
"I e 0 8 r 0 8 8 < = 9 : r 0 q 8 r q ; ,.,.,.,.,.,.,.,.,.,.,.,.,.,.,.,.,.,.,.,.,.,.,.,.,.) 7 9 9 r S 2 o U 0 = L q q 8 q q 7 8 < ",
"K r e 9 8 8 6 3 < = q U = > r 4 - $ o.,.,.,.,.,.,.,.,.,.,.,.,.,.,.,.,.,.,.,.,.,.,.,.,.,.,.@.; > : - U h w u = L w = = o = = = = ",
"= = = = = : 3 3 X = 9 r 6 X o - # +.,.,.,.,.,.,.,.,.,.,.,.,.,.,.,.,.,.,.,.,.,.,.,.,.,.,.,.=.{ X o Y k k H F = = = = K ^ ^ ! ! c ",
"^ ^ W C S e e = w 0 t c d r = # +.,.,.,.,.,.,.,.,.,.,.,.,.,.,.,.,.,.,.,.,.,.,.,.,.,.,.,.,.,.,.{ 2 t r k u y p p 0 = K 5 5 8 0 a ",
"5 8 0 k k t 2 = q t c t y 3 @ ..,.,.,.,.,.,.,.,.,.,.,.,.,.,.,.,.,.,.,.,.,.,.,.,.,.,.,.,.,.,.,.,.@.3 y q D a y 0 0 = H 5 5 5 a L ",
"5 5 k U S t 4 = 9 0 0 K 3 & %.,.,.,.,.,.,.,.,.,.,.,.,.,.,.,.,.,.,.,.,.,.,.,.,.,.,.,.,.,.,.,.,.,.,.O.4 0 a 0 9 4 - = ^ 0 8 8 y Z ",
"8 8 i c S t 4 : , 0 9 r % ..,.,.,.,.,.,.,.,.,.,.,.,.,.,.,.,.,.,.,.,.,.,.,.,.,.,.,.,.,.,.,.,.,.,.,.:.{ 4 9 4 > 4 a = ^ t 0 0 t i ",
"0 0 t i t t 4 = U 2 9 3 ..:.,.,.,.,.,.,.,.,.,.,.,.,.,.,.,.,.,.,.,.,.,.,.,.,.,.,.,.,.,.,.,.,.,.,.,.,.,., > 4 L i 9 = H y i t a i ",
"i t i p r t 3 : 0 9 9 * ,.,.,.,.,.,.,.,.,.,.,.,.,.,.,.,.,.,.,.,.,.,.,.,.,.,.,.,.,.,.,.,.,.,.,.,.,.,.,.( 9 0 0 9 0 = K r k t t c ",
"k t t S d 7 3 = 0 9 3 @.,.,.,.,.,.,.,.,.,.,.,.,.,.,.,.,.,.,.,.,.,.,.,.,.,.,.,.,.,.,.,.,.,.,.,.,.,.,.,.,.2 8 0 t 9 - 0 t k k 0 i ",
"k h q i t 9 : = 0 3 O ,.,.,.,.,.,.,.,.,.,.,.,.,.,.,.,.,.,.,.,.,.,.,.,.,.,.,.,.,.,.,.,.,.,.,.,.,.,.,.,.,.{ 3 0 t 0 - ; 2 4 4 4 4 ",
"3 4 3 2 = = X = = ; _ ,.,.,.,.,.,.,.,.,.,.,.,.,.,.,.,.,.,.,.,.,.,.,.,.,.,.,.,.,.,.,.,.,.,.,.,.,.,.,.,.,.*.; = = o = : = = : 4 4 ",
"- 0 6 0 t 8 9 e 0 o ,.,.,.,.,.,.,.,.,.,.,.,.,.,.,.,.,.,.,.,.,.,.,.,.,.,.,.,.,.,.,.,.,.,.,.,.,.,.,.,.,.,.,.= 0 r r e C t q i 2 = ",
"o b 0 r t 8 7 9 r - ,.,.,.,.,.,.,.,.,.,.,.,.,.,.,.,.,.,.,.,.,.,.,.,.,.,.,.,.,.,.,.,.,.,.,.,.,.,.,.,.,.,.,.= 9 r u t C t 0 t 4 = ",
"- ^ 0 r t e 8 8 0 - ,.,.,.,.,.,.,.,.,.,.,.,.,.,.,.,.,.,.,.,.,.,.,.,.,.,.,.,.,.,.,.,.,.,.,.,.,.,.,.,.,.,.,.o K e t t C t t t 4 = ",
"o ^ 9 r t C b 0 0 o ,.,.,.,.,.,.,.,.,.,.,.,.,.,.,.,.,.,.,.,.,.,.,.,.,.,.,.,.,.,.,.,.,.,.,.,.,.,.,.,.,.,.,.= K 9 r r h t t t 3 - ",
"o S 9 k t r t k 8 = ,.,.,.,.,.,.,.,.,.,.,.,.,.,.,.,.,.,.,.,.,.,.,.,.,.,.,.,.,.,.,.,.,.,.,.,.,.,.,.,.,.,.,.= ^ 0 t t u t t t 3 = ",
"= i 9 e t t t t 0 = ,.,.,.,.,.,.,.,.,.,.,.,.,.,.,.,.,.,.,.,.,.,.,.,.,.,.,.,.,.,.,.,.,.,.,.,.,.,.,.,.,.,.,.= ^ t t r t r r 0 3 = ",
"= e 8 7 8 8 7 0 0 = ,.,.,.,.,.,.,.,.,.,.,.,.,.,.,.,.,.,.,.,.,.,.,.,.,.,.,.,.,.,.,.,.,.,.,.,.,.,.,.,.,.,.,.= U 0 e 8 r q 8 8 1 - ",
"= 0 7 6 6 6 5 9 8 = ,.,.,.,.,.,.,.,.,.,.,.,.,.,.,.,.,.,.,.,.,.,.,.,.,.,.,.,.,.,.,.,.,.,.,.,.,.,.,.,.,.,.,.o K q e 9 8 8 6 3 < = ",
"= : : : o - o - = = ,.,.,.,.,.,.,.,.,.,.,.,.,.,.,.,.,.,.,.,.,.,.,.,.,.,.,.,.,.,.,.,.,.,.,.,.,.,.,.,.,.,.,.= = - = = = = = = X = ",
"S e e o - 9 ^ ^ q = ,.,.,.,.,.,.,.,.,.,.,.,.,.,.,.,.,.,.,.,.,.,.,.,.,.,.,.,.,.,.,.,.,.,.,.,.,.,.,.,.,.,.,.= 9 K ^ / 0 = = K W W ",
"k i 3 = - c U D t = ,.,.,.,.,.,.,.,.,.,.,.,.,.,.,.,.,.,.,.,.,.,.,.,.,.,.,.,.,.,.,.,.,.,.,.,.,.,.,.,.,.,.,.= K y t 0 8 = o K 7 6 ",
"S t 3 o o k K c t = ,.,.,.,.,.,.,.,.,.,.,.,.,.,.,.,.,.,.,.,.,.,.,.,.,.,.,.,.,.,.,.,.,.,.,.,.,.,.,.,.,.,.,.= ^ a 9 e 7 = = K 6 6 ",
"S t 4 : = 9 g u t = ,.,.,.,.,.,.,.,.,.,.,.,.,.,.,.,.,.,.,.,.,.,.,.,.,.,.,.,.,.,.,.,.,.,.,.,.,.,.,.,.,.,.,.= Q 9 i 9 0 = = ^ q 8 ",
"t t 4 = = 9 y r t = ,.,.,.,.,.,.,.,.,.,.,.,.,.,.,.,.,.,.,.,.,.,.,.,.,.,.,.,.,.,.,.,.,.,.,.,.,.,.,.,.,.,.,.= J 9 e 8 0 = = W t e ",
"r t 4 : = 8 y u 0 = ,.,.,.,.,.,.,.,.,.,.,.,.,.,.,.,.,.,.,.,.,.,.,.,.,.,.,.,.,.,.,.,.,.,.,.,.,.,.,.,.,.,.,.= A 9 8 6 8 = = K t i ",
"k 8 4 & = 8 8 4 5 = ,.,.,.,.,.,.,.,.,.,.,.,.,.,.,.,.,.,.,.,.,.,.,.,.,.,.,.,.,.,.,.,.,.,.,.,.,.,.,.,.,.,.,.= 9 9 9 4 7 = = K r k ",
"r 9 : = = 4 4 4 : = ,.,.,.,.,.,.,.,.,.,.,.,.,.,.,.,.,.,.,.,.,.,.,.,.,.,.,.,.,.,.,.,.,.,.,.,.,.,.,.,.,.,.,.= 4 4 4 4 4 - = 0 t s ",
"4 : : = o . X = . = ,.,.,.,.,.,.,.,.,.,.,.,.,.,.,.,.,.,.,.,.,.,.,.,.,.,.,.,.,.,.,.,.,.,.,.,.,.,.,.,.,.,.,.= = . = = = & = : 3 3 ",
"= a K ^ / / / ~ ^ = ,.,.,.,.,.,.,.,.,.,.,.,.,.,.,.,.,.,.,.,.,.,.,.,.,.,.,.,.,.,.,.,.,.,.,.,.,.,.,.,.,.,.,.= K ^ ^ ^ W S S e 0 = ",
"= S r w w t r y 8 = ,.,.,.,.,.,.,.,.,.,.,.,.,.,.,.,.,.,.,.,.,.,.,.,.,.,.,.,.,.,.,.,.,.,.,.,.,.,.,.,.,.,.,.= K 6 6 7 q k k t 3 = ",
"X K 9 t i w w w 8 = ,.,.,.,.,.,.,.,.,.,.,.,.,.,.,.,.,.,.,.,.,.,.,.,.,.,.,.,.,.,.,.,.,.,.,.,.,.,.,.,.,.,.,.= K 5 5 5 p U z t 4 o ",
"= J 9 r a a w 0 8 = ,.,.,.,.,.,.,.,.,.,.,.,.,.,.,.,.,.,.,.,.,.,.,.,.,.,.,.,.,.,.,.,.,.,.,.,.,.,.,.,.,.,.,.= ^ 0 8 8 i c S t 5 : ",
"= ^ 9 r z a 0 0 0 = ,.,.,.,.,.,.,.,.,.,.,.,.,.,.,.,.,.,.,.,.,.,.,.,.,.,.,.,.,.,.,.,.,.,.,.,.,.,.,.,.,.,.,.= ~ y 0 0 t t i t 2 = ",
"= c q r w y w 0 5 - ,.,.,.,.,.,.,.,.,.,.,.,.,.,.,.,.,.,.,.,.,.,.,.,.,.,.,.,.,.,.,.,.,.,.,.,.,.,.,.,.,.,.,.= K r p t a a r t 3 : ",
"= K q r y a 9 0 5 = ,.,.,.,.,.,.,.,.,.,.,.,.,.,.,.,.,.,.,.,.,.,.,.,.,.,.,.,.,.,.,.,.,.,.,.,.,.,.,.,.,.,.,.= K r k t t S k 8 2 o ",
"= t q y y 0 8 5 4 = ,.,.,.,.,.,.,.,.,.,.,.,.,.,.,.,.,.,.,.,.,.,.,.,.,.,.,.,.,.,.,.,.,.,.,.,.,.,.,.,.,.,.,.= 9 t k d 0 k t 0 : = ",
"= ; ; : 5 4 4 4 4 - ,.,.,.,.,.,.,.,.,.,.,.,.,.,.,.,.,.,.,.,.,.,.,.,.,.,.,.,.,.,.,.,.,.,.,.,.,.,.,.,.,.,.,.= : 3 3 4 3 3 = = X = ",
"l q 9 = = 0 ^ c 0 = ,.,.,.,.,.,.,.,.,.,.,.,.,.,.,.,.,.,.,.,.,.,.,.,.,.,.,.,.,.,.,.,.,.,.,.,.,.,.,.,.,.,.,.= 0 J ^ ^ 0 = = K ~ ~ ",
"a t 3 = = 9 0 u i = ,.,.,.,.,.,.,.,.,.,.,.,.,.,.,.,.,.,.,.,.,.,.,.,.,.,.,.,.,.,.,.,.,.,.,.,.,.,.,.,.,.,.,.o D q 0 9 0 = = K 6 6 ",
"S t 4 = = 8 0 r i = ,.,.,.,.,.,.,.,.,.,.,.,.,.,.,.,.,.,.,.,.,.,.,.,.,.,.,.,.,.,.,.,.,.,.,.,.,.,.,.,.,.,.,.- ^ q 9 0 8 = = K 5 5 ",
"S i 4 : = q r 9 w = ,.,.,.,.,.,.,.,.,.,.,.,.,.,.,.,.,.,.,.,.,.,.,.,.,.,.,.,.,.,.,.,.,.,.,.,.,.,.,.,.,.,.,.= ! 9 r r 9 = o ^ 0 8 ",
"i w 4 = = t 0 9 i = ,.,.,.,.,.,.,.,.,.,.,.,.,.,.,.,.,.,.,.,.,.,.,.,.,.,.,.,.,.,.,.,.,.,.,.,.,.,.,.,.,.,.,.= c 9 0 9 r = - ^ t 0 ",
"w w 5 ; = w 0 9 5 = ,.,.,.,.,.,.,.,.,.,.,.,.,.,.,.,.,.,.,.,.,.,.,.,.,.,.,.,.,.,.,.,.,.,.,.,.,.,.,.,.,.,.,.= q 9 r t t = o K r k ",
"a 8 2 = = 0 8 8 5 = ,.,.,.,.,.,.,.,.,.,.,.,.,.,.,.,.,.,.,.,.,.,.,.,.,.,.,.,.,.,.,.,.,.,.,.,.,.,.,.,.,.,.,.= 0 9 r t k - - K r k ",
"r 9 : = = 4 4 5 : : ,.,.,.,.,.,.,.,.,.,.,.,.,.,.,.,.,.,.,.,.,.,.,.,.,.,.,.,.,.,.,.,.,.,.,.,.,.,.,.,.,.,.,.. 4 4 3 4 3 = = 0 t k ",
"4 : : = =   X . . . ,.,.,.,.,.,.,.,.,.,.,.,.,.,.,.,.,.,.,.,.,.,.,.,.,.,.,.,.,.,.,.,.,.,.,.,.,.,.,.,.,.,.,..   . X X ; = = : 4 2 "
};
